<svg width="8" height="12" viewBox="0 0 8 12" fill="none" xmlns="http://www.w3.org/2000/svg">
<path d="M1.41345 5.42578L6.03874 0.813279C6.19028 0.662244 6.43563 0.662498 6.58692 0.81406C6.73809 0.965602 6.7377 1.21109 6.58614 1.36224L2.23616 5.70021L6.58629 10.0382C6.73784 10.1893 6.73823 10.4347 6.58708 10.5862C6.51124 10.6622 6.41188 10.7002 6.31253 10.7002C6.21343 10.7002 6.11446 10.6625 6.03876 10.587L1.41345 5.97463C1.34046 5.90201 1.2995 5.80318 1.2995 5.70021C1.2995 5.59725 1.34058 5.49854 1.41345 5.42578Z" fill="#292929"/>
<path d="M1.41345 5.42578L6.03874 0.813279C6.19028 0.662244 6.43563 0.662498 6.58692 0.81406C6.73809 0.965602 6.7377 1.21109 6.58614 1.36224L2.23616 5.70021L6.58629 10.0382C6.73784 10.1893 6.73823 10.4347 6.58708 10.5862C6.51124 10.6622 6.41188 10.7002 6.31253 10.7002C6.21343 10.7002 6.11446 10.6625 6.03876 10.587L1.41345 5.97463C1.34046 5.90201 1.2995 5.80318 1.2995 5.70021C1.2995 5.59725 1.34058 5.49854 1.41345 5.42578Z" stroke="#292929"/>
<path d="M1.41345 5.42578L6.03874 0.813279C6.19028 0.662244 6.43563 0.662498 6.58692 0.81406C6.73809 0.965602 6.7377 1.21109 6.58614 1.36224L2.23616 5.70021L6.58629 10.0382C6.73784 10.1893 6.73823 10.4347 6.58708 10.5862C6.51124 10.6622 6.41188 10.7002 6.31253 10.7002C6.21343 10.7002 6.11446 10.6625 6.03876 10.587L1.41345 5.97463C1.34046 5.90201 1.2995 5.80318 1.2995 5.70021C1.2995 5.59725 1.34058 5.49854 1.41345 5.42578Z" stroke="url(#paint0_linear)"/>
<defs>
<linearGradient id="paint0_linear" x1="6.76899" y1="6.89067" x2="1.1445" y2="6.8857" gradientUnits="userSpaceOnUse">
<stop stop-color="#F3386E"/>
<stop offset="1" stop-color="#4B2995"/>
</linearGradient>
</defs>
</svg>
