<svg width="30" height="28" viewBox="0 0 30 28" fill="none" xmlns="http://www.w3.org/2000/svg">
<g clip-path="url(#clip0)">
<path d="M14.5491 0C6.56424 0 0.0686035 6.28009 0.0686035 14C0.0686035 21.7199 6.56424 28 14.5491 28C22.534 28 29.0296 21.7199 29.0296 14C29.0296 6.28009 22.534 0 14.5491 0ZM21.4359 21.2414C21.2005 21.4689 20.8916 21.5834 20.5827 21.5834C20.2739 21.5834 19.9647 21.4689 19.7296 21.2414L13.696 15.4082C13.4691 15.1901 13.3425 14.8936 13.3425 14.5834V7C13.3425 6.35486 13.8829 5.8334 14.5491 5.8334C15.2153 5.8334 15.7558 6.35486 15.7558 7V14.1004L21.4359 19.5918C21.9076 20.0481 21.9076 20.7853 21.4359 21.2414Z" fill="#492996"/>
</g>
<defs>
<clipPath id="clip0">
<rect width="28.961" height="28" fill="white" transform="translate(0.0686035)"/>
</clipPath>
</defs>
</svg>
