<svg width="93" height="69" viewBox="0 0 93 69" fill="none" xmlns="http://www.w3.org/2000/svg">
<path d="M17.2416 0C12.8681 8.07417 4.20518 30.2781 0.42041 40.3709L30.278 28.596L39.9502 0H17.2416Z" fill="#492996"/>
<path d="M38.6887 44.1559C38.6887 54.8395 30.028 63.5003 19.3444 63.5003C8.66077 63.5003 0 54.8395 0 44.1559C0 33.4723 8.66077 24.8115 19.3444 24.8115C30.028 24.8115 38.6887 33.4723 38.6887 44.1559Z" fill="#492996"/>
<path d="M64.3412 0C59.9677 8.07417 51.3048 30.2781 47.52 40.3709L77.3776 28.596L87.0498 0H64.3412Z" fill="#492996"/>
<path d="M85.7881 44.1559C85.7881 54.8395 77.1273 63.5003 66.4437 63.5003C55.7601 63.5003 47.0994 54.8395 47.0994 44.1559C47.0994 33.4723 55.7601 24.8115 66.4437 24.8115C77.1273 24.8115 85.7881 33.4723 85.7881 44.1559Z" fill="#492996"/>
<path d="M22.2416 5C17.8681 13.0742 9.20518 35.2781 5.42041 45.3709L35.278 33.596L44.9502 5H22.2416Z" fill="#F2386E"/>
<path d="M43.6887 49.1559C43.6887 59.8395 35.028 68.5003 24.3444 68.5003C13.6608 68.5003 5 59.8395 5 49.1559C5 38.4723 13.6608 29.8115 24.3444 29.8115C35.028 29.8115 43.6887 38.4723 43.6887 49.1559Z" fill="#F2386E"/>
<path d="M69.3412 5C64.9677 13.0742 56.3048 35.2781 52.52 45.3709L82.3776 33.596L92.0498 5H69.3412Z" fill="#F2386E"/>
<path d="M90.7881 49.1559C90.7881 59.8395 82.1273 68.5003 71.4437 68.5003C60.7601 68.5003 52.0994 59.8395 52.0994 49.1559C52.0994 38.4723 60.7601 29.8115 71.4437 29.8115C82.1273 29.8115 90.7881 38.4723 90.7881 49.1559Z" fill="#F2386E"/>
</svg>
