<svg width="21" height="18" viewBox="0 0 21 18" fill="none" xmlns="http://www.w3.org/2000/svg">
<path d="M19.6523 0.0702672L0.446092 7.68509C-0.176 7.93176 -0.138313 8.84002 0.502055 9.03238L5.38255 10.4987L7.20396 16.3789C7.39422 16.9931 8.15925 17.1793 8.60211 16.7192L11.1255 14.0979L16.0765 17.7953C16.6824 18.2478 17.5453 17.9117 17.6991 17.1632L20.9782 1.21269C21.1388 0.431391 20.3833 -0.219555 19.6523 0.0702672ZM17.2443 3.61008L8.32317 11.6365C8.23425 11.7165 8.17765 11.8272 8.16442 11.9473L7.82094 15.0538C7.80973 15.1551 7.67039 15.1685 7.64064 15.0711L6.22749 10.4383C6.16277 10.2262 6.24716 9.99636 6.43263 9.87934L16.9676 3.23164C17.2099 3.07865 17.4579 3.41797 17.2443 3.61008Z" fill="#6C2C8D"/>
</svg>
