<svg width="50" height="50" viewBox="0 0 50 50" xmlns="http://www.w3.org/2000/svg">
<path d="M11.5016 17.0259C11.1208 16.645 10.5016 16.645 10.1209 17.0259C9.73901 17.4077 9.73901 18.0259 10.1209 18.4067C10.5017 18.7886 11.1209 18.7886 11.5016 18.4067C11.8834 18.0259 11.8834 17.4077 11.5016 17.0259Z" />
<path d="M24.7265 43.7228C25.1571 43.1396 25.3898 42.4369 25.3898 41.6982C25.3898 39.8136 23.8566 38.2803 21.9719 38.2803H5.37091C4.45753 38.2803 3.59923 38.6357 2.95401 39.2812C2.3085 39.9265 1.95303 40.7848 1.95303 41.6982C1.95303 42.4549 2.20069 43.1547 2.61856 43.7216C1.06358 44.5392 0 46.17 0 48.0455V49.0221C0 49.5615 0.437306 49.9987 0.976564 49.9987H26.3663C26.9055 49.9987 27.3428 49.5615 27.3428 49.0221V48.0455C27.3428 46.1709 26.2803 44.5407 24.7265 43.7228ZM4.33497 40.662C4.61143 40.3855 4.9794 40.2332 5.37091 40.2332H21.9719C22.7796 40.2332 23.4367 40.8903 23.4367 41.698C23.4367 42.0896 23.2843 42.4574 23.0078 42.734C22.7313 43.0106 22.3633 43.1628 21.9718 43.1628H5.37091C4.56319 43.1628 3.90616 42.5057 3.90616 41.6981C3.90616 41.3066 4.05841 40.9386 4.33497 40.662ZM1.95303 48.0455C1.95303 46.4302 3.26729 45.1159 4.88263 45.1159H5.37091H21.9719H22.4602C24.0755 45.1159 25.3898 46.4302 25.3898 48.0455H1.95303Z" />
<path d="M49.0898 41.0277C48.7582 40.5138 48.3625 40.0593 47.9136 39.6768L43.3506 35.697C43.315 35.6435 43.2738 35.5927 43.2266 35.5456C43.1474 35.4664 43.0575 35.4046 42.962 35.3583L40.2025 32.9515L27.4301 21.8098C27.9529 21.2632 28.2408 20.5485 28.2408 19.7884C28.2408 19.0054 27.936 18.2696 27.382 17.7157C27.1404 17.4743 26.8658 17.2846 26.5723 17.1456L27.754 15.964C28.0843 16.0518 28.4236 16.0967 28.7633 16.0967C29.7634 16.0966 30.7636 15.7159 31.5249 14.9546C32.263 14.2166 32.6694 13.2357 32.6694 12.1924C32.6694 11.1491 32.263 10.1682 31.525 9.43019L23.239 1.14444C22.501 0.406446 21.52 0 20.4764 0C19.4334 0 18.4526 0.406446 17.7147 1.14444C16.6948 2.16436 16.359 3.61251 16.7053 4.91544L4.91578 16.7049C4.58999 16.6183 4.25103 16.5726 3.90474 16.5726C2.86099 16.5726 1.88042 16.9787 1.14302 17.716C-0.38003 19.2391 -0.38003 21.7173 1.14302 23.2405L9.42887 31.5264C10.1905 32.288 11.1908 32.6687 12.1911 32.6687C13.1915 32.6687 14.1918 32.288 14.9534 31.5264C15.9733 30.5064 16.309 29.0584 15.9628 27.7554L17.142 26.5761C17.2837 26.872 17.4759 27.1451 17.7148 27.3838C18.2681 27.9372 19.0038 28.2419 19.7866 28.2419C20.5459 28.2419 21.2603 27.9545 21.8077 27.4323L35.4118 43.0626C35.4493 43.1212 35.493 43.1769 35.5442 43.2281C35.5617 43.2456 35.5803 43.2615 35.5987 43.2773L39.6525 47.935C39.7533 48.0539 39.861 48.1709 39.9728 48.2827C41.0862 49.3957 42.5568 49.9997 44.1008 49.9997C44.3729 49.9997 44.6476 49.981 44.9227 49.9429C46.7615 49.6884 48.3507 48.5884 49.2825 46.9245C50.3033 45.101 50.2273 42.7858 49.0898 41.0277ZM19.0959 2.52549C19.4649 2.15645 19.9553 1.95313 20.4765 1.95313C20.9984 1.95313 21.4891 2.15645 21.8581 2.52549L30.144 10.8113C30.5131 11.1804 30.7163 11.6709 30.7163 12.1925C30.7163 12.7141 30.5131 13.2046 30.1439 13.5737C29.3827 14.3351 28.1438 14.3351 27.3826 13.5737L19.0964 5.28741C19.0962 5.28722 19.0961 5.28712 19.0959 5.28692C18.3344 4.5256 18.3344 3.28682 19.0959 2.52549ZM13.5723 30.1454C12.8108 30.9069 11.5714 30.907 10.8099 30.1454L2.52407 21.8595C1.76245 21.0979 1.76245 19.8588 2.52407 19.0971C2.89243 18.7286 3.38286 18.5257 3.90474 18.5257C4.42652 18.5257 4.91665 18.7286 5.28492 19.0967L13.5722 27.384C14.3338 28.1453 14.3338 29.3841 13.5723 30.1454ZM17.6839 23.2723L14.9533 26.003L6.66656 17.7162L17.7147 6.66788L26.0013 14.9546L23.2658 17.6903C23.2569 17.6987 23.2482 17.7069 23.2388 17.7161L17.7175 23.2375C17.7061 23.2488 17.6951 23.2605 17.6839 23.2723ZM21.1708 25.3095C21.1688 25.3115 21.167 25.3133 21.165 25.3153L20.4773 26.003C20.2928 26.1874 20.0476 26.2889 19.7865 26.2889C19.5255 26.2889 19.2801 26.1874 19.0958 26.0029C18.9111 25.8183 18.8094 25.5728 18.8094 25.3116C18.8094 25.0559 18.907 24.8154 19.084 24.6339L24.631 19.087C25.0112 18.7172 25.6259 18.7218 26.0015 19.0971C26.1861 19.2817 26.2878 19.5272 26.2878 19.7884C26.2878 20.0495 26.1864 20.2943 26.0014 20.4788L25.3177 21.1624C25.3131 21.167 25.3084 21.1717 25.3038 21.1764L21.1708 25.3095ZM23.193 26.0493L26.0471 23.1952L38.1313 33.7357L33.7218 38.1454L23.193 26.0493ZM35.007 39.6221L39.6065 35.0225L41.0818 36.3093L36.2923 41.099L35.007 39.6221ZM47.5785 45.9704C46.9482 47.0957 45.8827 47.8384 44.6551 48.0083C43.4303 48.1778 42.2268 47.7744 41.3536 46.9016C41.2785 46.8266 41.2066 46.7483 41.1396 46.669C41.1365 46.6653 41.1334 46.6616 41.1302 46.658L37.5774 42.5758L42.557 37.5961L46.6342 41.1524C46.6372 41.1552 46.6403 41.1578 46.6435 41.1605C46.9487 41.42 47.2195 41.7316 47.4493 42.0877C48.1878 43.2288 48.2395 44.7893 47.5785 45.9704Z"/>
<path d="M18.4064 10.1205C18.0249 9.73914 17.4068 9.73914 17.0253 10.1205L12.882 14.2638C12.5006 14.6452 12.5006 15.2635 12.882 15.6448C13.0727 15.8355 13.3226 15.9308 13.5725 15.9308C13.8224 15.9308 14.0723 15.8354 14.263 15.6448L18.4064 11.5014C18.7877 11.1202 18.7877 10.5019 18.4064 10.1205Z" />
</svg>
