<svg width="50" height="50" viewBox="0 0 50 50" xmlns="http://www.w3.org/2000/svg">
<path d="M50 16.0975C49.9988 15.2694 49.7756 14.4296 49.2819 13.7373L45.3202 8.20735C44.6566 7.28817 43.647 6.82017 42.638 6.81836C42.0375 6.81836 41.4261 6.98626 40.8858 7.3538L37.0229 9.9756C36.6167 10.2582 35.9202 10.4522 35.2475 10.4472C34.7248 10.4497 34.2197 10.3356 33.8862 10.1559L30.1034 8.15696C29.4933 7.83651 28.8131 7.70515 28.1291 7.70387C27.1468 7.70888 26.152 7.97223 25.3525 8.5766L24.9111 8.91442C24.5583 8.72234 24.0191 8.42969 23.4084 8.09815C22.676 7.70643 21.8147 7.54844 20.9448 7.54535C20.159 7.5478 19.3733 7.6799 18.6835 7.9978L16.1069 9.19716C15.6876 9.39553 15.0206 9.52507 14.3581 9.52188C13.6956 9.52496 13.0298 9.39542 12.6105 9.19716L10.0315 7.99716C9.56114 7.77834 9.0583 7.6848 8.55996 7.68416C7.98614 7.6848 7.41573 7.80817 6.88555 8.04244C6.35606 8.27798 5.86455 8.62571 5.47315 9.10288L0.777835 14.8393C0.257425 15.4733 -0.00107088 16.2717 3.33418e-06 17.0576C-0.00107088 17.9947 0.366507 18.9349 1.07549 19.5938L5.45537 23.6702L3.37764 26.0348C2.80489 26.6869 2.51973 27.5323 2.51973 28.3683C2.51866 29.2577 2.84248 30.1558 3.48389 30.8171L3.90537 31.254C4.30254 31.665 4.77979 31.9264 5.2792 32.0659C5.02871 32.5685 4.8918 33.1196 4.89287 33.6718C4.8918 34.5619 5.21563 35.4593 5.85586 36.1213L5.85479 36.1207L6.27754 36.5595C6.8793 37.1817 7.65938 37.4917 8.42793 37.4911C8.84102 37.4918 9.25459 37.4012 9.64326 37.2239C9.77969 37.8277 10.0614 38.4016 10.5046 38.8602L10.9273 39.299C11.5291 39.9213 12.3079 40.2312 13.0777 40.2306C13.6795 40.2313 14.284 40.0378 14.8044 39.6623C14.9566 40.1966 15.2175 40.7029 15.6146 41.1145L16.0373 41.5533C16.6378 42.1755 17.4179 42.4854 18.1866 42.4849C19.0053 42.4855 19.832 42.1347 20.4427 41.4393L22.279 39.3474L24.7738 41.8663C25.371 42.4705 26.1375 42.7712 26.8941 42.7694C27.7254 42.7713 28.564 42.408 29.1759 41.6934L29.5741 41.2279C29.9179 40.8251 30.1423 40.3484 30.2725 39.8507L31.2389 40.8238C31.8371 41.4256 32.6025 41.725 33.3581 41.7244C34.1904 41.725 35.0313 41.3617 35.6438 40.6466L36.0398 40.1816C36.4972 39.6486 36.7546 38.9885 36.8341 38.3142C37.0892 38.3855 37.3477 38.4338 37.6084 38.4338C38.4407 38.4338 39.2793 38.0712 39.8924 37.3567L40.2896 36.8918C40.8446 36.2428 41.1208 35.4104 41.1196 34.5898C41.1196 34.335 41.0861 34.0816 41.0344 33.8311C41.7247 33.7313 42.394 33.3954 42.903 32.7991L43.3013 32.3337C43.8563 31.6847 44.1313 30.8523 44.1313 30.0311C44.1324 29.1274 43.7984 28.2156 43.1394 27.5513L42.3945 26.8007L49.117 18.6924C49.7205 17.9625 49.9989 17.0228 50 16.0975ZM6.05606 30.3406C5.69991 30.3394 5.35157 30.2005 5.0794 29.9191L4.65723 29.4822C4.36514 29.1809 4.2209 28.78 4.21973 28.3684C4.2209 27.9823 4.34756 27.6054 4.6084 27.3085L8.86387 22.4641C9.14112 22.1485 9.51104 21.9905 9.89053 21.99C10.2456 21.9906 10.5928 22.1301 10.8672 22.4121L11.2876 22.8496C11.2876 22.8496 11.7229 23.5518 11.7239 23.964C11.7229 24.2726 11.6376 24.5732 11.4723 24.8336C11.4581 24.849 6.8793 30.0548 6.8793 30.0548C6.63614 30.2425 6.34864 30.3392 6.05606 30.3406ZM9.45469 35.1726C9.17803 35.4869 8.80869 35.6442 8.4292 35.6455C8.07305 35.6449 7.72578 35.5054 7.45254 35.2241L7.02979 34.7858L7.02871 34.7852C6.73897 34.4852 6.59346 34.083 6.59346 33.6713C6.59346 33.2853 6.72129 32.9083 6.98086 32.6114C6.98086 32.6114 12.6533 26.1699 12.7011 26.1077C12.9722 25.8233 13.3215 25.6764 13.6822 25.6757C14.0384 25.6764 14.3856 25.8152 14.6589 26.0972L15.0816 26.536C15.3725 26.836 15.5169 27.2376 15.518 27.6498C15.5168 28.0359 15.3891 28.4134 15.1293 28.7103L9.45469 35.1726ZM14.1038 37.9114C13.8277 38.2264 13.4585 38.384 13.0789 38.3852C12.7228 38.3845 12.3755 38.2451 12.1022 37.9631L11.6783 37.5248C11.3875 37.2241 11.242 36.8226 11.242 36.411C11.242 36.0664 11.3494 35.7322 11.555 35.454L15.5054 30.956C15.7719 30.6938 16.1059 30.5556 16.452 30.5556C16.8081 30.5563 17.1554 30.6951 17.4286 30.9771L17.8525 31.4159C18.1423 31.7159 18.2878 32.1175 18.2889 32.5291C18.2877 32.9159 18.1588 33.2934 17.9002 33.5895L14.1038 37.9114ZM21.6099 37.4367L19.2128 40.1659C18.9366 40.4807 18.5668 40.6382 18.1873 40.6394C17.8312 40.6388 17.4839 40.4993 17.2106 40.2173L16.7879 39.779C16.4981 39.479 16.3526 39.0769 16.3516 38.6652C16.3526 38.2784 16.4805 37.901 16.7402 37.6053L19.1362 34.8762C19.4135 34.5614 19.7834 34.4033 20.1629 34.4027C20.518 34.4033 20.8663 34.5422 21.1396 34.8248L21.5635 35.2631C21.8532 35.5631 21.9976 35.9647 21.9987 36.3762C21.9974 36.763 21.8695 37.1404 21.6099 37.4367ZM42.4339 30.0335C42.4334 30.4126 42.3089 30.7838 42.0566 31.0788L41.6595 31.5437C41.3822 31.8673 41.0061 32.0309 40.6209 32.0316C40.2715 32.0309 39.9294 31.897 39.6579 31.6232L32.965 24.871L31.8077 26.2228L38.9716 33.4627C39.2699 33.764 39.4198 34.1731 39.4221 34.5908C39.4198 34.9714 39.2965 35.342 39.0448 35.6371L38.6488 36.102C38.3716 36.4256 37.9954 36.5886 37.6103 36.5898C37.2608 36.5887 36.9177 36.4541 36.6483 36.182L29.9537 29.4299L28.7976 30.7817L34.7388 36.7753C35.0251 37.0747 35.1718 37.4732 35.1718 37.8822C35.1718 38.2616 35.0484 38.6327 34.7968 38.9272L34.3996 39.3921C34.1234 39.7157 33.7462 39.8793 33.36 39.8805C33.0094 39.8793 32.6674 39.7447 32.397 39.4727L26.4677 33.5008H26.4666L26.4655 33.4996L25.3116 34.8539L25.3128 34.855L25.335 34.8779L28.3047 37.8679C28.5678 38.1629 28.7041 38.541 28.7052 38.9321C28.7041 39.3096 28.5818 39.6789 28.3302 39.9735L27.933 40.4389C27.6558 40.7625 27.2808 40.9248 26.8967 40.9261C26.5473 40.9249 26.2052 40.791 25.9348 40.5178L23.3491 37.9059C23.5741 37.4243 23.6997 36.9018 23.6997 36.3774C23.7008 35.488 23.377 34.5912 22.7367 33.9286L22.3128 33.4898C21.7123 32.8681 20.9333 32.5576 20.1646 32.5588C20.105 32.5588 20.0448 32.5737 19.9863 32.5774C19.9863 32.562 19.9897 32.5458 19.9897 32.5304C19.9907 31.6409 19.0267 30.0803 19.0267 30.0803L18.6039 29.6428C18.1545 29.1778 17.6062 28.8879 17.0358 28.7713C17.1534 28.4081 17.2199 28.03 17.2199 27.6513C17.2199 26.7619 16.8972 25.8643 16.2569 25.2025L15.8342 24.7637C15.2324 24.1414 14.4536 23.8309 13.6849 23.8315C13.5951 23.8315 13.5065 23.8513 13.4173 23.8601C13.3929 23.006 13.0775 22.1526 12.464 21.5167V21.516L12.0424 21.0791C11.4406 20.4562 10.6618 20.1457 9.89307 20.1463C9.07315 20.1457 8.24766 20.4965 7.63701 21.1919L6.63252 22.3355L2.18272 18.1951C1.86289 17.8964 1.70323 17.4836 1.70205 17.0597C1.70313 16.7045 1.81397 16.3568 2.0503 16.0681L6.74551 10.3317C6.93184 10.1037 7.20742 9.8973 7.53018 9.75401C7.85293 9.61083 8.21934 9.53221 8.56192 9.53274C8.86026 9.53274 9.14024 9.59166 9.36416 9.69702L11.9419 10.8969C12.6686 11.231 13.5122 11.368 14.3601 11.371C15.2089 11.3679 16.0515 11.2309 16.7782 10.8969L19.3548 9.69755C19.752 9.50856 20.3513 9.39137 20.9473 9.39382C21.6063 9.38945 22.2665 9.53828 22.6494 9.75146C22.8926 9.88345 23.1232 10.0087 23.3374 10.1258L20.7097 12.1409C19.8653 12.7886 19.4103 13.8187 19.4114 14.8582C19.4104 15.5462 19.6103 16.2465 20.0171 16.8409L20.016 16.8396L20.3631 17.3484C21.0222 18.3042 22.0499 18.7957 23.0772 18.7981C23.6572 18.7981 24.2481 18.6382 24.7748 18.2936L26.3463 17.264C26.6668 17.0502 27.1508 16.9151 27.6513 16.9176C28.2394 16.9138 28.8319 17.1036 29.1882 17.3892L33.5357 20.7895C34.5033 21.5456 36.0793 22.9483 36.9526 23.8309L41.9848 28.9065C42.2827 29.2079 42.4327 29.6152 42.4339 30.0335ZM47.8553 17.4586L41.1516 25.5451L38.1079 22.4759C37.1546 21.5158 35.5825 20.1157 34.528 19.2895L30.1816 15.8892C29.4447 15.3197 28.5425 15.0735 27.6505 15.0698C26.8914 15.0723 26.1267 15.2528 25.4665 15.6816L23.8962 16.7111C23.6553 16.8691 23.3713 16.9498 23.0763 16.9504C22.5489 16.9523 22.0212 16.6838 21.727 16.2468L21.381 15.7387L21.3798 15.7374C21.1957 15.4666 21.11 15.1629 21.1087 14.8554C21.1109 14.3905 21.3075 13.9393 21.6883 13.6461L26.3347 10.0847C26.7364 9.76744 27.4512 9.54489 28.1301 9.55043C28.6017 9.54798 29.0522 9.65142 29.3606 9.81761L33.1434 11.8165C33.7883 12.1543 34.5161 12.2925 35.2483 12.2944C36.1892 12.2894 37.1402 12.0663 37.9238 11.5413L41.7879 8.919C42.0345 8.7511 42.3305 8.66428 42.6391 8.66428C43.1606 8.6631 43.6833 8.92092 43.9793 9.34173L47.941 14.8717C48.1694 15.1884 48.3018 15.6352 48.3018 16.0983C48.3024 16.6162 48.1348 17.1257 47.8553 17.4586Z" />
</svg>
