<svg width="48" height="50" viewBox="0 0 48 50" xmlns="http://www.w3.org/2000/svg">
<path d="M47.1731 2.25918C46.9176 0.792753 46.5681 0.416947 45.2052 0.142551C42.8519 -0.332146 37.8243 0.275112 31.3988 3.54941C31.0494 3.72743 30.8984 4.18076 31.0617 4.56211C31.2248 4.94336 31.6403 5.10797 31.9899 4.92995C33.2424 4.29164 34.4554 3.75303 35.6108 3.30576L44.3017 12.8438C44.1267 13.3922 43.936 13.9555 43.7269 14.534C41.818 19.8092 37.0603 29.8213 26.5369 38.1339L20.0823 31.0321L23.1635 27.6444C23.4353 27.3458 23.4336 26.8634 23.1598 26.567C22.886 26.2707 22.4439 26.2725 22.1722 26.5712L19.0989 29.9501L12.6479 22.8523C17.0634 16.0828 22.703 10.4767 28.9889 6.61493C29.325 6.40848 29.4439 5.94386 29.2548 5.57723C29.0655 5.21049 28.6397 5.08086 28.3036 5.28721C26.8105 6.20455 25.3536 7.21805 23.939 8.31886C18.7906 6.38549 14.6289 7.37259 10.4891 11.4967C10.4838 11.5019 10.4787 11.5071 10.4736 11.5125C10.297 11.6994 10.1097 11.8914 9.91117 12.0948C8.5795 13.4594 6.9222 15.1577 6.88986 17.1457C6.8736 18.1466 7.26827 19.0973 8.06286 19.9715L11.2445 23.4721L12.9258 25.322L9.87346 27.2746C9.39582 27.5803 9.09051 28.1004 9.01363 28.7391C8.95772 29.2034 9.03109 29.6987 9.20676 30.1434C7.03429 30.5217 4.54691 31.5601 3.24889 33.2755C2.49171 34.2762 2.18733 35.4063 2.34424 36.6341C2.7973 40.1903 1.66339 42.8138 0.835433 44.7293C0.18314 46.2389 -0.3323 47.4314 0.261223 48.4526C0.93366 49.6096 2.7486 50 7.45363 50C10.8847 50 13.6398 49.1553 15.6426 47.4894C17.4169 46.0135 18.5692 43.9274 19.0789 41.2745L19.1616 41.3655C19.6082 41.8547 20.2662 42.1438 20.8992 42.1438C20.9935 42.1438 21.0873 42.1374 21.1796 42.1243C21.7666 42.041 22.2437 41.7049 22.5242 41.1762L24.2908 37.8266L25.3322 38.9725C25.3324 38.9727 25.3325 38.9729 25.3327 38.9731L29.1453 43.1681C29.9258 44.0268 30.7742 44.4618 31.6678 44.4618C31.6856 44.4618 31.7035 44.4617 31.7213 44.4613C33.5343 44.4262 35.0794 42.601 36.3208 41.1345C36.5057 40.916 36.6803 40.7099 36.8502 40.5155C36.8552 40.5098 36.86 40.5041 36.8648 40.4983C38.4877 38.5238 42.2553 33.9394 39.7499 25.7101C41.9271 22.3217 43.6992 18.7594 45.0259 15.0932C47.2076 9.05918 47.5655 4.50707 47.1731 2.25918ZM8.28639 17.1727C8.3082 15.8279 9.72719 14.3737 10.8675 13.2053C11.0673 13.0005 11.2562 12.8071 11.4385 12.6141C14.9464 9.1234 18.3304 8.1366 22.5515 9.43902C18.4591 12.8605 14.7624 17.0285 11.6508 21.7551L9.05466 18.8987C8.52813 18.3195 8.27678 17.7548 8.28639 17.1727ZM7.45363 48.4764C5.29522 48.4764 3.82384 48.3903 2.82299 48.2053C1.75949 48.0088 1.50205 47.7421 1.44078 47.6367C1.25856 47.3232 1.68566 46.335 2.09871 45.3792C2.9506 43.4083 4.23791 40.4299 3.72755 36.424C3.62553 35.6252 3.82125 34.9126 4.32606 34.2455C5.5011 32.6925 8.12256 31.7329 10.2314 31.5397L11.3776 32.8009C10.5747 33.046 9.70759 33.4825 9.15713 34.2089C8.74131 34.7576 8.56684 35.4066 8.65278 36.0869C8.8485 37.6189 8.36947 38.7265 7.98478 39.6165C7.6609 40.3656 7.35503 41.0731 7.74055 41.7366C8.13993 42.4238 9.0285 42.6444 11.3974 42.6444C14.3209 42.6444 16.261 41.3546 16.9897 38.9758L17.867 39.941C17.2012 45.6039 13.7008 48.4764 7.45363 48.4764ZM10.0361 35.8778C10.0038 35.6219 10.0665 35.4001 10.2335 35.1797C10.6786 34.5923 11.6981 34.2037 12.5494 34.0901L15.8386 37.7092C15.4971 39.9729 14.0052 41.1208 11.3974 41.1208C9.80989 41.1208 9.21156 41.007 8.98627 40.9227C9.03858 40.7506 9.15612 40.4787 9.24778 40.2667C9.6625 39.3075 10.289 37.8583 10.0361 35.8778ZM21.3146 40.4146C21.2928 40.4557 21.2264 40.5811 20.9996 40.6132C20.7152 40.6535 20.3588 40.5176 20.1524 40.2914L17.099 36.9319C17.0815 36.9102 17.0628 36.8896 17.043 36.8703L11.03 30.2542C11.0098 30.229 10.9883 30.2051 10.9653 30.1831L10.695 29.8857C10.485 29.6537 10.3603 29.2549 10.3985 28.9375C10.4288 28.6857 10.5428 28.6128 10.5801 28.5889L13.9411 26.4388L18.6067 31.5723L18.607 31.5726C18.6071 31.5727 18.6071 31.5727 18.6071 31.5727L23.2715 36.7047L21.3146 40.4146ZM35.8323 39.4724C35.657 39.673 35.4811 39.8809 35.295 40.1007C34.2339 41.3542 32.9133 42.9142 31.6967 42.9379C31.1723 42.9483 30.6617 42.6725 30.1372 42.0953L27.5306 39.2273C31.7736 35.8489 35.4859 31.8989 38.5712 27.4735C38.6208 27.4023 38.6689 27.3306 38.7181 27.2592C40.3539 33.9568 37.3393 37.6387 35.8323 39.4724ZM37.0925 2.77058C40.5506 1.61231 43.36 1.31987 44.9514 1.64084C45.3511 1.72138 45.5769 1.7864 45.6221 1.83439C45.6475 1.8613 45.7043 1.98902 45.801 2.54396C46.0714 4.09285 45.9102 7.14064 44.7864 11.2144L37.0925 2.77058Z" />
</svg>
