<svg width="40" height="50" viewBox="0 0 40 50" xmlns="http://www.w3.org/2000/svg">
<path fill-rule="evenodd" clip-rule="evenodd" d="M8.06466 16.6332C8.57698 16.8026 9.12934 16.5249 9.29833 16.0126C10.8315 11.3758 15.1447 8.26074 20.0317 8.26074C26.2638 8.26074 31.3343 13.3309 31.3343 19.5633C31.3343 24.3801 29.1767 27.2579 27.4433 29.5704C26.1822 31.2523 25.0931 32.7053 25.0931 34.4673C25.0931 34.5833 25.0916 34.6981 25.0889 34.8122H21.0083V32.5688C21.0083 32.0294 20.5711 31.5922 20.0317 31.5922C19.4923 31.5922 19.0552 32.0294 19.0552 32.5688V34.8122H14.9742C14.9715 34.6981 14.97 34.5833 14.97 34.4673C14.97 32.7049 13.8809 31.2523 12.6198 29.57C11.343 27.8668 9.8961 25.9361 9.17855 23.193C9.04199 22.6711 8.50793 22.3587 7.98646 22.4953C7.46499 22.6315 7.15257 23.1655 7.28913 23.687C8.10357 26.8009 9.74122 28.986 11.0573 30.7415C12.1521 32.2022 13.0169 33.3557 13.0169 34.4673C13.0169 34.935 13.0367 35.3913 13.0753 35.8265V44.0869C13.0753 44.1132 13.0772 44.1387 13.0791 44.1643C13.0798 44.1704 13.0795 44.1769 13.0802 44.183C13.0837 44.2192 13.0894 44.2543 13.0966 44.2894V44.2902C13.4358 45.8809 14.304 47.3274 15.5422 48.3631C16.8041 49.419 18.3987 50.0004 20.0317 50.0004C21.6648 50.0004 23.259 49.419 24.5213 48.3631C25.7591 47.3274 26.6277 45.8809 26.9665 44.2902C26.9665 44.2898 26.9669 44.2894 26.9669 44.289C26.9741 44.2543 26.9795 44.2192 26.9833 44.183C26.9836 44.1769 26.9836 44.1704 26.984 44.1643C26.9859 44.1384 26.9878 44.1128 26.9878 44.0865V35.8265C27.0264 35.3913 27.0466 34.935 27.0466 34.4673C27.0466 33.3557 27.9114 32.2022 29.0062 30.7415C30.8128 28.3314 33.2874 25.0309 33.2874 19.5633C33.2874 12.254 27.3407 6.30762 20.0317 6.30762C14.3005 6.30762 9.24226 9.96133 7.44401 15.3996C7.27464 15.9115 7.55273 16.4639 8.06466 16.6332ZM20.0317 48.0473C18.0462 48.0473 16.2556 46.8464 15.4072 45.063H24.6563C23.8075 46.8464 22.0169 48.0473 20.0317 48.0473ZM25.0351 43.1099H15.0284V40.9142H25.0351V43.1099ZM25.0351 38.961H15.0284V36.7653H25.0351V38.961Z" />
<path fill-rule="evenodd" clip-rule="evenodd" d="M20.0317 4.55513C20.5711 4.55513 21.0083 4.11797 21.0083 3.57857V0.976562C21.0083 0.437164 20.5711 0 20.0317 0C19.4923 0 19.0552 0.437164 19.0552 0.976562V3.57857C19.0552 4.11797 19.4923 4.55513 20.0317 4.55513Z" />
<path fill-rule="evenodd" clip-rule="evenodd" d="M1.44531 20.54H4.04732C4.58672 20.54 5.02388 20.1029 5.02388 19.5635C5.02388 19.0241 4.58672 18.5869 4.04732 18.5869H1.44531C0.905914 18.5869 0.46875 19.0241 0.46875 19.5635C0.46875 20.1029 0.905914 20.54 1.44531 20.54Z" />
<path fill-rule="evenodd" clip-rule="evenodd" d="M24.503 21.5361C24.503 20.9967 24.0658 20.5596 23.5264 20.5596H16.5371C15.9977 20.5596 15.5605 20.9967 15.5605 21.5361C15.5605 22.0755 15.9977 22.5127 16.5371 22.5127H19.0552V24.7561C19.0552 25.2955 19.4924 25.7327 20.0318 25.7327C20.5711 25.7327 21.0083 25.2955 21.0083 24.7561V22.5127H23.5264C24.0658 22.5127 24.503 22.0755 24.503 21.5361Z" />
<path fill-rule="evenodd" clip-rule="evenodd" d="M8.03862 8.95119C8.22935 9.14192 8.47922 9.23729 8.72908 9.23729C8.97894 9.23729 9.2288 9.14192 9.41954 8.95119C9.80101 8.56972 9.80101 7.95135 9.41954 7.57027L7.57971 5.73044C7.19824 5.34897 6.57988 5.34897 6.19841 5.73044C5.81733 6.11153 5.81733 6.72989 6.19841 7.11136L8.03862 8.95119Z" />
<path fill-rule="evenodd" clip-rule="evenodd" d="M6.21567 34.3559C6.46553 34.3559 6.7154 34.2606 6.90613 34.0698L8.74596 32.23C9.12743 31.8485 9.12743 31.2306 8.74596 30.8491C8.36449 30.4676 7.74613 30.4676 7.36504 30.8491L5.52483 32.6889C5.14374 33.0704 5.14374 33.6888 5.52483 34.0698C5.71556 34.2606 5.96543 34.3559 6.21567 34.3559Z" />
<path fill-rule="evenodd" clip-rule="evenodd" d="M31.3343 9.23655C31.5841 9.23655 31.834 9.14118 32.0247 8.95045L33.8646 7.11062C34.246 6.72915 34.246 6.11079 33.8646 5.72932C33.4835 5.34785 32.8651 5.34823 32.4836 5.72932L30.6438 7.56915C30.2623 7.95062 30.2623 8.56898 30.6434 8.95045C30.8342 9.14118 31.0844 9.23655 31.3343 9.23655Z" />
<path fill-rule="evenodd" clip-rule="evenodd" d="M31.3174 30.8491C30.9359 31.2302 30.9359 31.8485 31.3174 32.23L33.1572 34.0698C33.3479 34.2606 33.5978 34.3559 33.8476 34.3559C34.0975 34.3559 34.3474 34.2606 34.5381 34.0698C34.9196 33.6888 34.9196 33.0704 34.5381 32.6889L32.6983 30.8491C32.3168 30.4676 31.6984 30.4676 31.3174 30.8491Z" />
<path fill-rule="evenodd" clip-rule="evenodd" d="M36.0161 20.54H38.6181C39.1575 20.54 39.5947 20.1029 39.5947 19.5635C39.5947 19.0241 39.1575 18.5869 38.6181 18.5869H36.0161C35.4767 18.5869 35.0396 19.0241 35.0396 19.5635C35.0396 20.1029 35.4767 20.54 36.0161 20.54Z" />
<path fill-rule="evenodd" clip-rule="evenodd" d="M20.0317 27.6855C19.4939 27.6855 19.0552 28.1242 19.0552 28.6621C19.0552 29.2 19.4939 29.6387 20.0317 29.6387C20.5696 29.6387 21.0083 29.2 21.0083 28.6621C21.0083 28.1242 20.5696 27.6855 20.0317 27.6855Z" />
<path fill-rule="evenodd" clip-rule="evenodd" d="M8.729 19.5635C8.729 19.0256 8.29031 18.5869 7.75244 18.5869C7.21419 18.5869 6.77588 19.0256 6.77588 19.5635C6.77588 20.1014 7.21419 20.54 7.75244 20.54C8.29031 20.54 8.729 20.1014 8.729 19.5635Z" />
</svg>
