<svg width="50" height="50" viewBox="0 0 50 50" fill="none" xmlns="http://www.w3.org/2000/svg">
<path d="M1.22579 31.1594C1.5 31.3494 1.7893 31.5166 2.09079 31.6594C2.45163 31.8436 3.05496 32.1519 3.09746 32.3686C3.1505 32.6531 3.11652 32.947 2.99996 33.2119C2.87579 33.4786 2.74496 33.7077 2.63329 33.9061C2.32746 34.4444 1.81746 35.3469 2.58746 35.9769C2.76746 36.1436 3.07829 36.3844 3.36246 36.6019C3.15364 36.9665 3.05901 37.3854 3.09079 37.8044C3.13457 38.1323 3.31151 38.4277 3.57996 38.6211C3.76746 38.7544 3.96829 38.8711 4.16329 38.9836C4.65329 39.2627 4.84496 39.3927 4.91329 39.6502C4.95811 39.9893 4.9268 40.334 4.82163 40.6594C4.77246 40.8761 4.72496 41.0919 4.69413 41.3136C4.61153 42.0736 4.70799 42.8425 4.97579 43.5586C5.34979 44.8856 6.54981 45.8102 7.92829 45.8336C8.15708 45.8327 8.38518 45.8087 8.60913 45.7619C10.9898 45.1977 13.3357 44.4957 15.635 43.6594C17.5116 44.7611 18.6983 48.1111 19.0075 49.3686C19.1001 49.74 19.4338 50.0005 19.8166 50.0002L40.7333 49.9419C40.9984 49.9414 41.2474 49.8148 41.404 49.6009C41.5606 49.3871 41.6062 49.1115 41.5266 48.8586C41.3205 48.294 41.0364 47.761 40.6825 47.2752C40.4823 46.9878 40.3019 46.6871 40.1425 46.3753C39.7657 45.611 39.451 44.8176 39.2016 44.0028C38.7263 42.3922 38.3964 40.7423 38.2158 39.0728C37.9233 36.5796 38.3013 34.0536 39.3108 31.7552C39.9268 30.4806 40.6862 29.2804 41.5741 28.1777C42.0741 27.5028 42.5933 26.8036 43.0591 26.0694C43.8601 24.8252 44.4408 23.4524 44.7758 22.0111C44.8717 21.5662 44.5929 21.1266 44.1495 21.0238C43.7062 20.9209 43.2623 21.1927 43.1525 21.6344C42.8595 22.8923 42.3521 24.0904 41.6525 25.1761C41.22 25.8603 40.72 26.5336 40.2358 27.1853C39.2715 28.3885 38.4486 29.6984 37.7833 31.0894C36.6548 33.6598 36.233 36.4849 36.5616 39.2727C36.7538 41.0433 37.1055 42.7929 37.6125 44.5003C37.8862 45.3967 38.2321 46.2696 38.6466 47.1103C38.8366 47.4858 39.0524 47.8478 39.2925 48.1936L39.3483 48.2769L20.4466 48.3336C19.8927 46.3569 18.8884 44.5354 17.5125 43.0119L18.2625 42.7511C18.8225 42.5552 19.245 42.4077 19.4633 42.3344C23.0316 41.1969 24.8166 39.5719 24.7675 37.5011C24.7652 37.2799 24.6734 37.0691 24.5131 36.9166C24.3528 36.7642 24.1377 36.6831 23.9166 36.6919C23.4567 36.7028 23.0926 37.0844 23.1033 37.5444C23.1233 38.3969 22.4208 39.6452 18.9566 40.7486C18.73 40.8211 18.29 40.9736 17.7141 41.1761C17.095 41.3919 16.31 41.6669 15.4433 41.9611H15.4375C13.0939 42.8204 10.7027 43.5439 8.27579 44.1278C7.4996 44.2737 6.74508 43.7862 6.55913 43.0186C6.3799 42.5482 6.30953 42.0434 6.35329 41.5419C6.37746 41.3752 6.41663 41.2002 6.45496 41.0303C6.63231 40.4486 6.66096 39.8317 6.53829 39.2361C6.29628 38.473 5.73502 37.8524 4.99996 37.5352L4.82079 37.4327C4.91062 37.2503 5.01837 37.0772 5.14246 36.9161C5.28208 36.7387 5.3438 36.5123 5.31348 36.2887C5.28317 36.065 5.16342 35.8632 4.98163 35.7294C4.78246 35.5827 4.31496 35.2294 3.96496 34.9511C4.00496 34.8786 4.04829 34.7986 4.09079 34.7269C4.22163 34.4969 4.37163 34.2269 4.51663 33.9211C4.78072 33.3373 4.85814 32.6863 4.73829 32.0569C4.53913 31.0402 3.56496 30.5419 2.85413 30.1786C2.61464 30.0647 2.38497 29.9311 2.16746 29.7794C1.98888 29.6598 1.82152 29.5243 1.66746 29.3744C1.66746 29.2477 1.80329 28.9419 2.43746 28.1694C3.92865 26.2481 5.20696 24.1707 6.24996 21.9736C6.44575 21.6292 6.55606 21.2428 6.57163 20.8469C6.48435 20.0084 6.03855 19.2487 5.34913 18.7636C5.01163 18.4536 4.69246 18.1619 4.65663 17.9161C4.66427 17.7119 4.71005 17.5109 4.79163 17.3236C4.92746 16.9669 5.08496 16.6169 5.24163 16.2661C5.59303 15.5423 5.87216 14.7855 6.07496 14.0069C6.26592 13.073 6.51643 12.1522 6.82496 11.2502C7.48179 9.43709 8.49889 7.77567 9.81496 6.36608C11.4083 4.67858 13.9166 3.48525 17.2833 2.81692C19.8585 2.25153 22.4716 1.87498 25.1016 1.69025C25.9866 1.64465 26.8736 1.66359 27.7558 1.74692C28.0529 1.7746 28.3422 1.64167 28.5148 1.3982C28.6873 1.15473 28.7169 0.837696 28.5923 0.566534C28.4677 0.295371 28.2079 0.111272 27.9108 0.0835835C26.9478 -0.00464863 25.9798 -0.0238644 25.0141 0.0260835C22.3028 0.214213 19.6089 0.600804 16.9541 1.18275C13.1966 1.93275 10.4658 3.25025 8.60246 5.22025C7.13106 6.79319 5.99373 8.64803 5.25913 10.6728C4.92142 11.6581 4.64724 12.664 4.43829 13.6844C4.26019 14.3388 4.0208 14.975 3.72329 15.5844C3.55663 15.9636 3.38496 16.3428 3.23496 16.7369C3.04531 17.1775 2.96744 17.6581 3.00829 18.1361C3.18068 18.8799 3.61303 19.5378 4.22746 19.9911C4.63579 20.3652 4.90496 20.6286 4.90829 20.8586C4.87796 20.9851 4.83029 21.1068 4.76663 21.2203C3.76891 23.3216 2.54621 25.3085 1.11996 27.1461C0.516627 27.8819 -0.116706 28.7394 0.0157936 29.5977C0.193248 30.2596 0.629258 30.8223 1.22579 31.1594Z" fill="white"/>
<path d="M9.9478 12.4074C10.4496 11.0161 11.2274 9.74058 12.2345 8.65737C13.3453 7.48153 15.2661 6.6157 17.9445 6.0832C18.396 5.99369 18.6894 5.55511 18.5999 5.10362C18.5104 4.65213 18.0718 4.35868 17.6203 4.4482C14.5961 5.04987 12.377 6.07987 11.0236 7.50987C9.86077 8.75796 8.96272 10.2286 8.38363 11.8332C8.1031 12.6657 7.8746 13.5148 7.69946 14.3757L9.32696 14.7365C9.48669 13.9483 9.69402 13.1705 9.9478 12.4074Z" fill="white"/>
<path d="M27.3823 4.66668L26.8823 7.16001C26.4003 7.31829 25.9312 7.51331 25.479 7.74334L23.3632 6.32668C22.7021 5.89373 21.8278 5.98457 21.2698 6.54418L19.8865 7.92668C19.3159 8.48689 19.2236 9.37341 19.6665 10.0392L21.0765 12.145C20.8465 12.5972 20.6515 13.0663 20.4932 13.5483L18.0032 14.0483C17.2251 14.2055 16.6659 14.8896 16.6665 15.6833V17.65C16.6659 18.4424 17.2234 19.1257 17.9998 19.2842L20.4932 19.7842C20.6515 20.2662 20.8465 20.7353 21.0765 21.1875L19.6598 23.3033C19.2269 23.9644 19.3177 24.8387 19.8773 25.3967L21.2607 26.78C21.8219 27.348 22.7064 27.4398 23.3723 26.9992L25.4782 25.5892C25.9303 25.8192 26.3995 26.0142 26.8815 26.1725L27.3815 28.6625C27.5383 29.4409 28.2225 30.0006 29.0165 30H30.9832C31.7756 30.0006 32.4589 29.4431 32.6173 28.6667L33.1173 26.1733C33.5993 26.0151 34.0685 25.82 34.5207 25.59L36.6365 27.0067C37.2976 27.4396 38.1719 27.3488 38.7298 26.7892L40.1123 25.4067C40.683 24.8465 40.7753 23.9599 40.3323 23.2942L38.9223 21.1883C39.1524 20.7362 39.3474 20.267 39.5057 19.785L41.9957 19.285C42.4903 19.185 42.9125 18.8655 43.1432 18.4167L44.399 19.2583C44.6413 19.411 44.9218 19.4922 45.2082 19.4925C45.6077 19.4926 45.9907 19.3333 46.2723 19.05L47.3807 17.9417C47.8847 17.4351 47.9657 16.645 47.5748 16.0467L46.4998 14.4383C46.6558 14.1249 46.7905 13.8014 46.9032 13.47L48.789 13.0942C49.4946 12.9556 50.0025 12.3357 49.9998 11.6167V10.05C50.0024 9.33364 49.498 8.71546 48.7957 8.57418L46.9015 8.19668C46.7897 7.86516 46.6555 7.54164 46.4998 7.22834L47.5915 5.60084C47.9698 5.00477 47.8832 4.22591 47.3832 3.72751L46.2748 2.61918C45.7684 2.11484 44.978 2.03386 44.3798 2.42501L42.7715 3.50001C42.4581 3.34408 42.1346 3.20933 41.8032 3.09668L41.4265 1.21084C41.288 0.505573 40.6686 -0.00229126 39.9498 9.46008e-06H38.3832C37.6668 -0.00251852 37.0486 0.501866 36.9073 1.20418L36.5298 3.09834C36.1983 3.21093 35.8747 3.34596 35.5615 3.50251L33.934 2.41084C33.3378 2.03321 32.5594 2.11978 32.0607 2.61918L31.3107 3.36918C31.2029 3.3467 31.0932 3.3347 30.9832 3.33334H29.0165C28.2241 3.33278 27.5408 3.89026 27.3823 4.66668ZM40.1223 7.93334L39.7332 7.54418C41.1776 7.73753 42.3265 8.85131 42.5645 10.289C42.8026 11.7268 42.074 13.1514 40.769 13.8L39.504 13.55C39.3457 13.068 39.1507 12.5989 38.9207 12.1467L40.3373 10.0308C40.7718 9.36996 40.682 8.4947 40.1223 7.93584V7.93334ZM33.1473 3.88668L35.0523 5.16668C35.3195 5.34582 35.6659 5.35522 35.9423 5.19084C36.4194 4.91009 36.9324 4.69562 37.4673 4.55334C37.773 4.4708 38.0055 4.22218 38.0673 3.91168L38.5148 1.66668H39.8182L40.2657 3.91668C40.3275 4.22718 40.56 4.4758 40.8657 4.55834C41.4006 4.70062 41.9136 4.91509 42.3907 5.19584C42.6681 5.35873 43.0145 5.34738 43.2807 5.16668L45.1857 3.88834L46.1107 4.81334L44.8332 6.71918C44.654 6.98632 44.6446 7.33271 44.809 7.60918C45.0898 8.08621 45.3042 8.59926 45.4465 9.13418C45.5291 9.43983 45.7777 9.67231 46.0882 9.73418L48.3382 10.1817V11.485L46.0923 11.9325C45.7818 11.9944 45.5332 12.2269 45.4507 12.5325C45.3084 13.0674 45.0939 13.5805 44.8132 14.0575C44.6488 14.334 44.6582 14.6804 44.8373 14.9475L46.1157 16.8525L45.1907 17.7775L43.3332 16.535V15.6833C43.3333 15.1954 43.1202 14.7318 42.7498 14.4142C44.217 13.0008 44.6773 10.8374 43.9126 8.94923C43.1479 7.06105 41.312 5.82755 39.2748 5.83334C38.771 5.83651 38.2708 5.91862 37.7923 6.07668C37.3852 6.01735 36.9703 6.10862 36.6257 6.33334L34.5215 7.74334C34.0693 7.51331 33.6002 7.31829 33.1182 7.16001L32.6182 4.67001C32.6034 4.60324 32.5842 4.53754 32.5607 4.47334L33.1473 3.88668ZM28.4165 7.98084L29.0165 5.00001H30.9832L31.5823 7.98334C31.6446 8.29298 31.8766 8.54079 32.1815 8.62334C32.87 8.80895 33.5314 9.08349 34.149 9.44001C34.4242 9.59964 34.7663 9.58865 35.0307 9.41168L37.5523 7.72501L38.949 9.11418L37.2573 11.6383C37.0804 11.9027 37.0694 12.2448 37.229 12.52C37.5855 13.1376 37.8601 13.799 38.0457 14.4875C38.1282 14.7924 38.376 15.0244 38.6857 15.0867L41.6665 15.6825V17.65L38.6832 18.2492C38.3735 18.3115 38.1257 18.5435 38.0432 18.8483C37.8576 19.5369 37.583 20.1983 37.2265 20.8158C37.0669 21.091 37.0779 21.4331 37.2548 21.6975L38.9415 24.2192L37.5523 25.6158L35.0282 23.9242C34.7638 23.7472 34.4217 23.7362 34.1465 23.8958C33.5289 24.2524 32.8675 24.5269 32.179 24.7125C31.8741 24.7951 31.6421 25.0429 31.5798 25.3525L30.9832 28.3333H29.0165L28.4173 25.35C28.355 25.0404 28.123 24.7926 27.8182 24.71C27.1297 24.5244 26.4683 24.2499 25.8507 23.8933C25.5755 23.7337 25.2334 23.7447 24.969 23.9217L22.4473 25.6083L21.0507 24.2192L22.7423 21.695C22.9193 21.4306 22.9303 21.0885 22.7707 20.8133C22.4142 20.1958 22.1396 19.5344 21.954 18.8458C21.8715 18.541 21.6236 18.309 21.314 18.2467L18.3332 17.65V15.6833L21.3165 15.0842C21.6261 15.0219 21.874 14.7899 21.9565 14.485C22.1421 13.7965 22.4166 13.1351 22.7732 12.5175C22.9328 12.2423 22.9218 11.9002 22.7448 11.6358L21.0582 9.11418L22.4473 7.71751L24.9715 9.40918C25.2359 9.58615 25.578 9.59714 25.8532 9.43751C26.4707 9.08099 27.1322 8.80645 27.8207 8.62084C28.1242 8.53721 28.3548 8.28961 28.4165 7.98084Z" fill="white"/>
<path d="M29.9996 22.5002C33.2213 22.5002 35.8329 19.8885 35.8329 16.6668C35.8329 13.4452 33.2213 10.8335 29.9996 10.8335C26.7779 10.8335 24.1663 13.4452 24.1663 16.6668C24.1699 19.887 26.7795 22.4965 29.9996 22.5002ZM29.9996 12.5002C32.3008 12.5002 34.1663 14.3656 34.1663 16.6668C34.1663 18.968 32.3008 20.8335 29.9996 20.8335C27.6984 20.8335 25.8329 18.968 25.8329 16.6668C25.8357 14.3668 27.6995 12.5029 29.9996 12.5002Z" fill="white"/>
<path d="M29.9998 17.5002C30.4601 17.5002 30.8331 17.1271 30.8331 16.6668C30.8331 16.2066 30.4601 15.8335 29.9998 15.8335C29.5396 15.8335 29.1665 16.2066 29.1665 16.6668C29.1665 17.1271 29.5396 17.5002 29.9998 17.5002Z" fill="white"/>
<path d="M7.50008 18.3337C7.96032 18.3337 8.33342 17.9606 8.33342 17.5003C8.33342 17.0401 7.96032 16.667 7.50008 16.667C7.03985 16.667 6.66675 17.0401 6.66675 17.5003C6.66675 17.9606 7.03985 18.3337 7.50008 18.3337Z" fill="white"/>
</svg>
