<svg width="23" height="23" viewBox="0 0 23 23" fill="none" xmlns="http://www.w3.org/2000/svg">
<g clip-path="url(#clip0)">
<path d="M22.9396 8.82171C22.7882 8.35599 22.3751 8.02626 21.8883 7.98222L15.2489 7.37945L12.625 1.23628C12.4312 0.784947 11.9904 0.493652 11.4998 0.493652C11.0091 0.493652 10.5682 0.784947 10.3757 1.23628L7.75173 7.37945L1.11125 7.98222C0.624475 8.02714 0.212275 8.35687 0.0599591 8.82171C-0.0914793 9.28743 0.0483774 9.79825 0.416532 10.1211L5.43541 14.522L3.95559 21.0396C3.84732 21.5188 4.03333 22.0144 4.43097 22.3018C4.6447 22.4571 4.89581 22.5347 5.1478 22.5347C5.36434 22.5347 5.58105 22.4771 5.77461 22.3613L11.4998 18.9381L17.2239 22.3613C17.6438 22.6123 18.1718 22.5893 18.5686 22.3018C18.9662 22.0144 19.1523 21.5188 19.044 21.0396L17.5642 14.522L22.583 10.1211C22.951 9.79825 23.0911 9.28848 22.9396 8.82171Z" fill="#492996"/>
</g>
<defs>
<clipPath id="clip0">
<rect width="23" height="23" fill="white"/>
</clipPath>
</defs>
</svg>
