<svg width="50" height="50" viewBox="0 0 50 50" fill="none" xmlns="http://www.w3.org/2000/svg">
<path d="M33.3935 32.0666C32.2089 32.0666 31.2451 31.2324 31.2451 30.2071C31.2451 29.1817 32.2089 28.3476 33.3935 28.3476C34.5782 28.3476 35.542 29.1817 35.542 30.2071C35.542 30.7464 35.9793 31.1837 36.5185 31.1837C37.0578 31.1837 37.4951 30.7464 37.4951 30.2071C37.4951 28.4176 36.1617 26.9129 34.3701 26.5045V25.9966C34.3701 25.4573 33.9328 25.02 33.3935 25.02C32.8543 25.02 32.417 25.4573 32.417 25.9966V26.5045C30.6254 26.9129 29.292 28.4176 29.292 30.2071C29.292 32.3094 31.1319 34.0197 33.3935 34.0197C34.5782 34.0197 35.542 34.8539 35.542 35.8793C35.542 36.9047 34.5782 37.7388 33.3935 37.7388C32.2089 37.7388 31.2451 36.9047 31.2451 35.8793C31.2451 35.34 30.8078 34.9027 30.2686 34.9027C29.7293 34.9027 29.292 35.34 29.292 35.8793C29.292 37.6688 30.6254 39.1735 32.417 39.5819V40.0038C32.417 40.543 32.8543 40.9803 33.3935 40.9803C33.9328 40.9803 34.3701 40.543 34.3701 40.0038V39.5819C36.1617 39.1735 37.4951 37.6688 37.4951 35.8793C37.4951 33.7769 35.6552 32.0666 33.3935 32.0666Z" fill="#6A2B82"/>
<path d="M44.0896 26.2574C42.8139 24.2696 41.0167 22.679 38.8922 21.6577C38.4059 21.4239 37.8224 21.6286 37.5888 22.1148C37.3552 22.6009 37.5597 23.1843 38.0459 23.418C41.7481 25.1977 44.1402 29.0003 44.1402 33.1056C44.1402 34.8622 43.7072 36.6043 42.8882 38.1438C42.6348 38.6198 42.8154 39.2112 43.2916 39.4646C43.4377 39.5423 43.5947 39.5792 43.7494 39.5792C44.0988 39.5792 44.4368 39.3911 44.6124 39.0611C45.5812 37.2404 46.0933 35.181 46.0933 33.1056C46.0933 30.6681 45.4005 28.3 44.0896 26.2574Z" fill="#6A2B82"/>
<path d="M34.929 20.4103L34.8633 20.4102C34.324 20.4102 33.8867 20.8474 33.8867 21.3867C33.8867 21.9261 34.324 22.3633 34.8633 22.3633L34.9198 22.3634C34.9214 22.3634 34.9229 22.3634 34.9245 22.3634C35.4617 22.3634 35.8984 21.9292 35.901 21.3914C35.9034 20.852 35.4683 20.4128 34.929 20.4103Z" fill="#6A2B82"/>
<path d="M28.7505 42.7935C25.0483 41.0137 22.6562 37.2111 22.6562 33.1059C22.6562 31.3493 23.0893 29.6072 23.9083 28.0678C24.1616 27.5917 23.981 27.0003 23.5049 26.747C23.0289 26.4936 22.4373 26.6742 22.1841 27.1504C21.2152 28.9712 20.7031 31.0305 20.7031 33.1059C20.7031 35.5434 21.396 37.9114 22.7068 39.9541C23.9825 41.9418 25.7798 43.5325 27.9043 44.5539C28.0407 44.6195 28.1848 44.6504 28.3267 44.6504C28.6904 44.6504 29.0394 44.4464 29.2076 44.0968C29.4411 43.6107 29.2366 43.0272 28.7505 42.7935Z" fill="#6A2B82"/>
<path d="M31.9335 43.8479L31.877 43.8477C31.3352 43.8467 30.8984 44.2802 30.896 44.8196C30.8935 45.359 31.3288 45.7983 31.8681 45.8008L31.9335 45.801C32.4728 45.801 32.9101 45.3637 32.9101 44.8244C32.9101 44.2852 32.4728 43.8479 31.9335 43.8479Z" fill="#6A2B82"/>
<path d="M37.8328 17.1062C37.714 16.823 37.5684 16.5561 37.399 16.3086H39.9413C42.4183 16.3086 44.4335 14.2933 44.4335 11.8164C44.4335 9.33944 42.4183 7.32421 39.9413 7.32421H32.121C32.6182 6.60136 32.9101 5.72685 32.9101 4.78515C32.9101 2.3082 30.8949 0.292969 28.4179 0.292969H4.49218C2.01523 0.292969 0 2.3082 0 4.78515C0 7.2621 2.01523 9.27733 4.49218 9.27733H12.3125C11.8153 10.0002 11.5234 10.8747 11.5234 11.8164C11.5234 12.7581 11.8152 13.6326 12.3125 14.3554H9.76561C7.28866 14.3554 5.27343 16.3707 5.27343 18.8476C5.27343 20.2702 5.93886 21.5396 6.97411 22.3632C5.93886 23.1869 5.27343 24.4563 5.27343 25.8789C5.27343 27.3014 5.93886 28.5708 6.97411 29.3945C5.93886 30.2181 5.27343 31.4875 5.27343 32.9101C5.27343 34.3326 5.93886 35.6021 6.97411 36.4257C5.93886 37.2493 5.27343 38.5188 5.27343 39.9413C5.27343 42.4183 7.28866 44.4335 9.76561 44.4335H21.2744C24.3062 47.6764 28.6193 49.707 33.3985 49.707C42.5526 49.707 50 42.2596 50 33.1055C50 25.4867 44.8408 19.051 37.8328 17.1062ZM39.9413 9.27733C41.3414 9.27733 42.4804 10.4164 42.4804 11.8164C42.4804 13.2164 41.3414 14.3554 39.9413 14.3554H33.6913H16.0156C14.6155 14.3554 13.4765 13.2164 13.4765 11.8164C13.4765 10.4164 14.6155 9.27733 16.0156 9.27733H39.9413ZM4.49218 7.32421C3.09208 7.32421 1.95312 6.18514 1.95312 4.78515C1.95312 3.38515 3.09208 2.24609 4.49218 2.24609H28.4179C29.818 2.24609 30.957 3.38515 30.957 4.78515C30.957 6.18514 29.818 7.32421 28.4179 7.32421H4.49218ZM9.76561 16.3086H33.6913C34.0847 16.3086 34.4614 16.4 34.7993 16.5636C34.3373 16.5249 33.8703 16.504 33.3985 16.504C28.814 16.504 24.6578 18.372 21.6505 21.3867H9.76561C8.36561 21.3867 7.22655 20.2476 7.22655 18.8476C7.22655 17.4476 8.36561 16.3086 9.76561 16.3086ZM9.76561 23.3398H19.9819C18.8733 24.8586 18.0162 26.5717 17.4718 28.4179H9.76561C8.36551 28.4179 7.22655 27.279 7.22655 25.8789C7.22655 24.4789 8.36551 23.3398 9.76561 23.3398ZM9.76561 30.371H17.0234C16.8753 31.261 16.7969 32.1742 16.7969 33.1055C16.7969 33.901 16.8545 34.6832 16.9632 35.4492H9.76561C8.36551 35.4492 7.22655 34.3102 7.22655 32.9101C7.22655 31.51 8.36551 30.371 9.76561 30.371ZM9.76561 42.4804C8.36551 42.4804 7.22655 41.3414 7.22655 39.9413C7.22655 38.5412 8.36551 37.4023 9.76561 37.4023H17.3619C17.8547 39.2395 18.6551 40.9517 19.7049 42.4804H9.76561ZM33.3985 47.7539C25.3213 47.7539 18.7501 41.1826 18.7501 33.1055C18.7501 25.0284 25.3213 18.4571 33.3985 18.4571C41.4756 18.4571 48.0469 25.0284 48.0469 33.1055C48.0469 41.1826 41.4756 47.7539 33.3985 47.7539Z" fill="#6A2B82"/>
</svg>
