<svg width="46" height="51" viewBox="0 0 46 51" fill="none" xmlns="http://www.w3.org/2000/svg">
<path d="M41.9457 33.6832L38.6723 34.8783C38.3317 33.7599 37.5346 32.8793 36.5164 32.4966C36.2212 30.3666 34.4944 28.8327 32.5305 28.9558C31.2596 26.721 28.9632 25.4409 26.5657 25.6305C26.3058 24.5182 25.5433 23.6296 24.5458 23.2766C25.258 20.7392 26.5294 18.4327 28.2479 16.5605C28.3397 16.6757 28.4257 16.7968 28.5229 16.9062C30.0563 18.6202 32.1514 19.5921 34.3424 19.6059C34.4967 19.6059 34.6518 19.601 34.8061 19.5905C36.7805 19.4923 38.614 18.4419 39.8137 16.7217C43.1295 11.9447 45.5691 2.34475 45.671 1.93828C45.7297 1.70562 45.6935 1.45654 45.5716 1.25536C45.4498 1.05418 45.2544 0.920745 45.0358 0.889463C44.587 0.82426 33.9771 -0.634349 28.6732 4.2718C28.2985 4.61815 27.9587 5.00722 27.6594 5.43255C25.571 4.80222 23.3928 4.60896 21.239 4.86283C21.0142 4.89118 20.8126 5.02765 20.6887 5.23508C20.5648 5.44252 20.5315 5.69952 20.5979 5.93658C20.6489 6.11742 21.859 10.3889 23.5239 12.5281C24.2618 13.4448 25.3311 13.9586 26.4467 13.9326C26.5559 13.9326 26.6666 13.9234 26.7772 13.9143C26.9347 14.3464 27.1212 14.7651 27.3352 15.167C25.2633 17.3694 23.7648 20.1368 22.994 23.1845C22.2732 23.3517 21.6314 23.7972 21.1855 24.4396C19.0897 23.4257 16.6366 23.9976 15.0994 25.8583C14.6511 25.6955 14.182 25.6123 13.7097 25.6118C11.482 25.6159 9.58125 27.3774 9.20861 29.7827H7.79785C7.16262 28.7409 6.09451 28.115 4.9507 28.1144H3.42739C1.53536 28.1166 0.00205286 29.7959 0 31.8682V46.8834C0.00205286 48.9556 1.53536 50.635 3.42739 50.6372H4.9507C5.72615 50.6336 6.47696 50.3392 7.07836 49.8031H26.8858C28.0034 49.8032 29.0994 49.4665 30.054 48.83L44.3303 39.3122C45.5681 38.4852 46.0422 36.7726 45.4319 35.3321C44.8217 33.8916 43.3216 33.182 41.9457 33.6832ZM27.688 10.0883C27.7342 8.33941 28.448 6.69193 29.6557 5.54673C32.5717 2.85034 37.5261 2.31875 40.9795 2.31875C42.215 2.31875 43.2585 2.38678 43.9476 2.44788C43.2436 4.99852 41.1547 12.0332 38.6013 15.7125C37.6676 17.0432 36.2443 17.8534 34.7135 17.9255C32.8063 18.0359 30.9483 17.2406 29.6148 15.7431C29.5179 15.634 29.4309 15.5145 29.3406 15.3983C30.9364 13.8133 32.7061 12.452 34.6091 11.3457C34.9869 11.1431 35.1432 10.6434 34.9583 10.2296C34.7734 9.81581 34.3171 9.64454 33.9393 9.84709C31.9663 10.9693 30.1293 12.3577 28.4712 13.9798C27.9048 12.7797 27.6349 11.4381 27.688 10.0883ZM26.1666 10.0063C26.1372 10.7623 26.1931 11.5193 26.3331 12.2603C25.7042 12.2551 25.1063 11.9604 24.6857 11.4482C23.6817 9.92197 22.8988 8.2351 22.3647 6.44725C23.8728 6.35126 25.3854 6.5062 26.8511 6.9067C26.4434 7.8822 26.211 8.93454 26.1666 10.0063ZM6.85478 46.8834C6.85353 48.0346 6.00177 48.9675 4.9507 48.9688H3.42739C2.37632 48.9675 1.52447 48.0346 1.52331 46.8834V31.8682C1.52456 30.717 2.37632 29.7841 3.42739 29.7827H4.9507C6.00177 29.7841 6.85362 30.717 6.85478 31.8682V46.8834ZM13.7096 27.2801C14.1601 27.2831 14.6043 27.397 15.0093 27.6133C15.3415 27.7859 15.7388 27.6744 15.9542 27.3481C17.1262 25.554 19.3745 25.0767 21.0737 26.261C21.2668 26.3951 21.5046 26.4271 21.7216 26.3481C21.9386 26.2691 22.1117 26.0876 22.1931 25.8537C22.4075 25.2308 22.9428 24.8102 23.5503 24.7875C23.5706 24.7893 23.5912 24.7942 23.6115 24.7942C23.6306 24.7942 23.6477 24.7852 23.6667 24.7836C24.4707 24.8103 25.1155 25.5203 25.1355 26.401C25.1326 26.4242 25.1247 26.5032 25.1233 26.5264C25.1099 26.785 25.2069 27.0357 25.3859 27.205C25.5649 27.3743 25.8055 27.443 26.0371 27.3908C26.3665 27.3171 26.702 27.28 27.0383 27.28C28.898 27.2772 30.601 28.4202 31.443 30.2363C31.5996 30.5719 31.9425 30.7505 32.2791 30.6717C32.9465 30.522 33.6402 30.7046 34.1726 31.1703C34.705 31.636 35.021 32.3366 35.0352 33.0827C35.0333 33.1103 35.0319 33.1385 35.0319 33.1609C35.0319 33.576 35.3108 33.9279 35.686 33.9865C36.4029 34.1025 36.998 34.6529 37.2224 35.4076L27.8475 38.8304C27.6145 38.9155 27.3706 38.9588 27.1249 38.9587H26.6873C27.0492 37.8722 26.9446 36.665 26.4027 35.6724L26.335 35.5498C25.5063 34.0457 24.0208 33.1242 22.4167 33.1194H18.433C17.0277 33.1175 15.6646 32.5938 14.5661 31.6339C13.4644 30.6741 12.1445 30.0615 10.7485 29.8624C11.0686 28.3532 12.295 27.2837 13.7096 27.2801ZM44.1511 36.9221C44.082 37.3248 43.8592 37.6759 43.5386 37.8871L29.2619 47.4052C28.546 47.8825 27.7239 48.1349 26.8858 48.1348H8.16754C8.30303 47.7341 8.37426 47.3108 8.37809 46.8835V31.8683C8.37256 31.7286 8.35971 31.5893 8.33963 31.4511H9.7478C11.1531 31.4531 12.5162 31.9768 13.6148 32.9366C14.9834 34.1329 16.682 34.7855 18.433 34.7879H22.4167C23.4864 34.7913 24.4768 35.4059 25.0293 36.409L25.097 36.5316C25.5128 37.2907 25.4682 38.2498 24.9842 38.9588H20.3549C18.8511 38.9571 17.3807 39.4448 16.1305 40.3599L15.5723 40.7672C15.3445 40.9319 15.2145 41.2174 15.2316 41.5156C15.2487 41.814 15.4102 42.0795 15.6551 42.2116C15.8999 42.3437 16.1905 42.3222 16.4169 42.1553L16.9751 41.7479C17.9755 41.0158 19.1518 40.6257 20.3549 40.6271H27.1249C27.5343 40.6271 27.9408 40.5548 28.3292 40.4132L38.0467 36.8654C38.0591 36.8661 38.0696 36.8732 38.0821 36.8732C38.2529 36.8699 38.4174 36.8025 38.5483 36.6822L42.4277 35.2659C42.9706 35.0674 43.5686 35.2733 43.91 35.7763C44.1361 36.103 44.2238 36.5201 44.1511 36.9221Z" fill="#492996"/>
</svg>
