<svg width="14" height="28" viewBox="0 0 14 28" fill="none" xmlns="http://www.w3.org/2000/svg"><path fill-rule="evenodd" clip-rule="evenodd" d="M3.8874 14.1177V26.8076C3.8874 26.9502 4.02277 27.0927 4.15814 27.0927H8.62525C8.76062 27.0927 8.89599 26.9502 8.89599 26.8076V13.8325H12.1448C12.2802 13.8325 12.4155 13.6899 12.4155 13.5473L12.6863 9.69758C12.6863 9.55499 12.5509 9.26983 12.4155 9.26983H8.89599V6.56074C8.89599 5.84783 9.43745 5.42008 9.97892 5.42008H12.5509C12.6863 5.42008 12.8216 5.27749 12.8216 5.13491V1.28517C12.8216 1.14258 12.6863 1 12.5509 1H8.35452C5.91791 1 3.8874 3.13875 3.8874 5.70525V9.41241H1.58616C1.4508 9.41241 1.31543 9.55499 1.31543 9.69758V13.5473C1.31543 13.6899 1.4508 13.8325 1.58616 13.8325H3.8874V14.1177Z" stroke=""></path><path fill-rule="evenodd" clip-rule="evenodd" d="M3.8874 14.1177V26.8076C3.8874 26.9502 4.02277 27.0927 4.15814 27.0927H8.62525C8.76062 27.0927 8.89599 26.9502 8.89599 26.8076V13.8325H12.1448C12.2802 13.8325 12.4155 13.6899 12.4155 13.5473L12.6863 9.69758C12.6863 9.55499 12.5509 9.26983 12.4155 9.26983H8.89599V6.56074C8.89599 5.84783 9.43745 5.42008 9.97892 5.42008H12.5509C12.6863 5.42008 12.8216 5.27749 12.8216 5.13491V1.28517C12.8216 1.14258 12.6863 1 12.5509 1H8.35452C5.91791 1 3.8874 3.13875 3.8874 5.70525V9.41241H1.58616C1.4508 9.41241 1.31543 9.55499 1.31543 9.69758V13.5473C1.31543 13.6899 1.4508 13.8325 1.58616 13.8325H3.8874V14.1177Z" stroke="url(#paint0_linear)"></path><defs><linearGradient id="paint0_linear" x1="-0.794381" y1="12.393" x2="17.772" y2="12.8149" gradientUnits="userSpaceOnUse"><stop stop-color="#E3356A"></stop><stop offset="1" stop-color="#402589"></stop></linearGradient></defs></svg>