<svg width="14" height="28" viewBox="0 0 14 28" fill="none" xmlns="http://www.w3.org/2000/svg">
<path fill-rule="evenodd" clip-rule="evenodd" d="M3.88765 14.1177V26.8076C3.88765 26.9502 4.02302 27.0927 4.15838 27.0927H8.6255C8.76086 27.0927 8.89623 26.9502 8.89623 26.8076V13.8325H12.145C12.2804 13.8325 12.4158 13.6899 12.4158 13.5473L12.6865 9.69758C12.6865 9.55499 12.5511 9.26983 12.4158 9.26983H8.89623V6.56074C8.89623 5.84783 9.4377 5.42008 9.97917 5.42008H12.5511C12.6865 5.42008 12.8219 5.27749 12.8219 5.13491V1.28517C12.8219 1.14258 12.6865 1 12.5511 1H8.35476C5.91815 1 3.88765 3.13875 3.88765 5.70525V9.41241H1.58641C1.45104 9.41241 1.31567 9.55499 1.31567 9.69758V13.5473C1.31567 13.6899 1.45104 13.8325 1.58641 13.8325H3.88765V14.1177Z" stroke="white"/>
<path fill-rule="evenodd" clip-rule="evenodd" d="M3.88765 14.1177V26.8076C3.88765 26.9502 4.02302 27.0927 4.15838 27.0927H8.6255C8.76086 27.0927 8.89623 26.9502 8.89623 26.8076V13.8325H12.145C12.2804 13.8325 12.4158 13.6899 12.4158 13.5473L12.6865 9.69758C12.6865 9.55499 12.5511 9.26983 12.4158 9.26983H8.89623V6.56074C8.89623 5.84783 9.4377 5.42008 9.97917 5.42008H12.5511C12.6865 5.42008 12.8219 5.27749 12.8219 5.13491V1.28517C12.8219 1.14258 12.6865 1 12.5511 1H8.35476C5.91815 1 3.88765 3.13875 3.88765 5.70525V9.41241H1.58641C1.45104 9.41241 1.31567 9.55499 1.31567 9.69758V13.5473C1.31567 13.6899 1.45104 13.8325 1.58641 13.8325H3.88765V14.1177Z" stroke="url(#paint0_linear)"/>
<defs>
<linearGradient id="paint0_linear" x1="-0.794137" y1="12.393" x2="17.7722" y2="12.8149" gradientUnits="userSpaceOnUse">
<stop stop-color="#E3356A"/>
<stop offset="1" stop-color="#402589"/>
</linearGradient>
</defs>
</svg>
