<svg width="23" height="22" viewBox="0 0 23 22" fill="none" xmlns="http://www.w3.org/2000/svg">
<path d="M21.5729 13.2619V20.9003C21.5729 21.0343 21.4457 21.3023 21.1912 21.3023H17.3745C17.2473 21.3023 16.9928 21.1683 16.9928 20.9003V13.7979C16.9928 11.9218 16.3567 10.5818 14.7028 10.5818C13.4305 10.5818 12.7944 11.3858 12.4127 12.3239C12.2855 12.5919 12.2855 12.9939 12.2855 13.3959V20.9003C12.2855 21.0343 12.1583 21.3023 11.9038 21.3023H8.08708C7.95986 21.3023 7.70541 21.1683 7.70541 20.9003C7.70541 19.0242 7.70541 9.77774 7.70541 7.49962C7.70541 7.36562 7.83263 7.0976 8.08708 7.0976H11.9038C12.031 7.0976 12.2855 7.23161 12.2855 7.49962V9.10771C12.9216 8.16966 13.9394 6.82959 16.2295 6.82959C19.4101 6.9636 21.5729 8.9737 21.5729 13.2619ZM1.4714 21.3023H5.28814C5.41537 21.3023 5.66982 21.1683 5.66982 20.9003V7.49962C5.66982 7.36562 5.54259 7.0976 5.28814 7.0976H1.4714C1.34417 7.0976 1.08972 7.23161 1.08972 7.49962V20.9003C1.21695 21.1683 1.34417 21.3023 1.4714 21.3023Z" />
<path d="M21.5729 13.2619V20.9003C21.5729 21.0343 21.4457 21.3023 21.1912 21.3023H17.3745C17.2473 21.3023 16.9928 21.1683 16.9928 20.9003V13.7979C16.9928 11.9218 16.3567 10.5818 14.7028 10.5818C13.4305 10.5818 12.7944 11.3858 12.4127 12.3239C12.2855 12.5919 12.2855 12.9939 12.2855 13.3959V20.9003C12.2855 21.0343 12.1583 21.3023 11.9038 21.3023H8.08708C7.95986 21.3023 7.70541 21.1683 7.70541 20.9003C7.70541 19.0242 7.70541 9.77774 7.70541 7.49962C7.70541 7.36562 7.83263 7.0976 8.08708 7.0976H11.9038C12.031 7.0976 12.2855 7.23161 12.2855 7.49962V9.10771C12.9216 8.16966 13.9394 6.82959 16.2295 6.82959C19.4101 6.9636 21.5729 8.9737 21.5729 13.2619ZM1.4714 21.3023H5.28814C5.41537 21.3023 5.66982 21.1683 5.66982 20.9003V7.49962C5.66982 7.36562 5.54259 7.0976 5.28814 7.0976H1.4714C1.34417 7.0976 1.08972 7.23161 1.08972 7.49962V20.9003C1.21695 21.1683 1.34417 21.3023 1.4714 21.3023Z" stroke="url(#paint0_linear)"/>
<path d="M3.25248 5.62397C4.5875 5.62397 5.66975 4.48404 5.66975 3.07786C5.66975 1.67168 4.5875 0.531738 3.25248 0.531738C1.91746 0.531738 0.835205 1.67168 0.835205 3.07786C0.835205 4.48404 1.91746 5.62397 3.25248 5.62397Z" />
<path d="M3.25248 5.62397C4.5875 5.62397 5.66975 4.48404 5.66975 3.07786C5.66975 1.67168 4.5875 0.531738 3.25248 0.531738C1.91746 0.531738 0.835205 1.67168 0.835205 3.07786C0.835205 4.48404 1.91746 5.62397 3.25248 5.62397Z" stroke="url(#paint1_linear)"/>
<defs>
<linearGradient id="paint0_linear" x1="-3.38415" y1="16.988" x2="26.1532" y2="16.566" gradientUnits="userSpaceOnUse">
<stop stop-color="#F2386E"/>
<stop offset="1" stop-color="#492996"/>
</linearGradient>
<linearGradient id="paint1_linear" x1="-2.11853" y1="3.06351" x2="6.32071" y2="3.48547" gradientUnits="userSpaceOnUse">
<stop offset="0.171883" stop-color="#D83574"/>
<stop offset="1" stop-color="#C0337A"/>
</linearGradient>
</defs>
</svg>
