<svg width="23" height="22" viewBox="0 0 23 22" fill="none" xmlns="http://www.w3.org/2000/svg"><path d="M21.573 13.2619V20.9003C21.573 21.0343 21.4458 21.3023 21.1914 21.3023H17.3746C17.2474 21.3023 16.9929 21.1683 16.9929 20.9003V13.7979C16.9929 11.9218 16.3568 10.5818 14.7029 10.5818C13.4306 10.5818 12.7945 11.3858 12.4128 12.3239C12.2856 12.5919 12.2856 12.9939 12.2856 13.3959V20.9003C12.2856 21.0343 12.1584 21.3023 11.9039 21.3023H8.0872C7.95998 21.3023 7.70554 21.1683 7.70554 20.9003C7.70554 19.0242 7.70554 9.77774 7.70554 7.49962C7.70554 7.36562 7.83275 7.0976 8.0872 7.0976H11.9039C12.0312 7.0976 12.2856 7.23161 12.2856 7.49962V9.10771C12.9217 8.16966 13.9395 6.82959 16.2296 6.82959C19.4102 6.9636 21.573 8.9737 21.573 13.2619ZM1.47152 21.3023H5.28826C5.41549 21.3023 5.66994 21.1683 5.66994 20.9003V7.49962C5.66994 7.36562 5.54271 7.0976 5.28826 7.0976H1.47152C1.3443 7.0976 1.08984 7.23161 1.08984 7.49962V20.9003C1.21707 21.1683 1.3443 21.3023 1.47152 21.3023Z" stroke=""></path><path d="M21.573 13.2619V20.9003C21.573 21.0343 21.4458 21.3023 21.1914 21.3023H17.3746C17.2474 21.3023 16.9929 21.1683 16.9929 20.9003V13.7979C16.9929 11.9218 16.3568 10.5818 14.7029 10.5818C13.4306 10.5818 12.7945 11.3858 12.4128 12.3239C12.2856 12.5919 12.2856 12.9939 12.2856 13.3959V20.9003C12.2856 21.0343 12.1584 21.3023 11.9039 21.3023H8.0872C7.95998 21.3023 7.70554 21.1683 7.70554 20.9003C7.70554 19.0242 7.70554 9.77774 7.70554 7.49962C7.70554 7.36562 7.83275 7.0976 8.0872 7.0976H11.9039C12.0312 7.0976 12.2856 7.23161 12.2856 7.49962V9.10771C12.9217 8.16966 13.9395 6.82959 16.2296 6.82959C19.4102 6.9636 21.573 8.9737 21.573 13.2619ZM1.47152 21.3023H5.28826C5.41549 21.3023 5.66994 21.1683 5.66994 20.9003V7.49962C5.66994 7.36562 5.54271 7.0976 5.28826 7.0976H1.47152C1.3443 7.0976 1.08984 7.23161 1.08984 7.49962V20.9003C1.21707 21.1683 1.3443 21.3023 1.47152 21.3023Z" stroke="url(#paint0_linear)"></path><path d="M3.25223 5.62397C4.58725 5.62397 5.6695 4.48404 5.6695 3.07786C5.6695 1.67168 4.58725 0.531738 3.25223 0.531738C1.91721 0.531738 0.834961 1.67168 0.834961 3.07786C0.834961 4.48404 1.91721 5.62397 3.25223 5.62397Z" stroke=""></path><path d="M3.25223 5.62397C4.58725 5.62397 5.6695 4.48404 5.6695 3.07786C5.6695 1.67168 4.58725 0.531738 3.25223 0.531738C1.91721 0.531738 0.834961 1.67168 0.834961 3.07786C0.834961 4.48404 1.91721 5.62397 3.25223 5.62397Z" stroke="url(#paint1_linear)"></path><defs><linearGradient id="paint0_linear" x1="-3.38403" y1="16.988" x2="26.1533" y2="16.566" gradientUnits="userSpaceOnUse"><stop stop-color="#F2386E"></stop><stop offset="1" stop-color="#492996"></stop></linearGradient><linearGradient id="paint1_linear" x1="-2.11877" y1="3.06351" x2="6.32047" y2="3.48547" gradientUnits="userSpaceOnUse"><stop offset="0.171883" stop-color="#D83574"></stop><stop offset="1" stop-color="#C0337A"></stop></linearGradient></defs></svg>