<svg width="31" height="20" viewBox="0 0 31 20" fill="none" xmlns="http://www.w3.org/2000/svg"><path d="M1 3.02879C1 2.88691 1 2.74502 1 2.60313C1.13487 2.31936 1.26974 2.17747 1.53949 2.17747C1.80924 2.17747 1.94411 2.03558 2.21386 2.03558C3.42772 2.03558 4.77646 2.03558 5.99033 2.03558C6.66469 2.03558 7.06932 2.31936 7.33906 2.88691C7.60881 3.73824 8.01344 4.58957 8.41806 5.29901C8.95755 6.29222 9.36217 7.42733 10.0365 8.42054C10.3063 8.84621 10.576 9.12998 10.8458 9.41375L10.9807 9.55565C11.5202 9.98131 11.9248 10.1232 12.1945 9.12998C12.3294 8.70432 12.3294 8.27865 12.4643 7.85299C12.5991 6.576 12.5991 5.29901 12.3294 4.1639C12.1945 3.31257 11.7899 2.88691 10.9807 2.74502C10.576 2.60313 10.576 2.46124 10.8458 2.17747C11.1155 1.7518 11.5202 1.60992 12.0596 1.46803C12.3294 1.46803 12.4643 1.32614 12.734 1.32614C14.0828 1.18425 15.4315 1.18425 16.6454 1.32614C16.7802 1.32614 16.9151 1.32614 17.05 1.46803C17.7244 1.60992 18.129 1.89369 18.2638 2.88691C18.2638 3.73824 18.2638 4.73145 18.2638 5.58278C18.2638 6.71789 18.129 7.85299 18.2638 8.84621C18.2638 9.12998 18.3987 9.27187 18.5336 9.41375C18.8033 9.69753 19.0731 9.83942 19.3428 9.55565C19.8823 9.12998 20.287 8.56243 20.6916 7.99487C21.6357 6.43411 22.5798 4.87334 23.2542 3.17069C23.389 2.88691 23.389 2.74502 23.5239 2.46125C23.6588 2.17747 23.9285 2.03558 24.1983 2.03558C25.8168 2.03558 27.4353 1.89369 29.0537 2.03558C29.3235 2.03558 29.4584 2.03558 29.7281 2.17747C29.9979 2.31936 30.2676 2.46125 30.2676 2.74502C30.2676 2.88691 30.2676 3.0288 30.2676 3.17069C30.1327 4.1639 29.5932 4.87334 29.1886 5.72467C28.3794 7.00166 27.4353 8.27865 26.626 9.41375C26.3563 9.69753 26.0865 10.1232 25.9517 10.407C25.547 11.1164 25.547 11.5421 26.0865 12.1096C26.3563 12.5353 26.7609 12.8191 27.0306 13.1028C27.9748 13.9542 28.784 14.8055 29.5932 15.9406C29.863 16.2244 29.9979 16.65 30.2676 16.9338C30.4025 17.0757 30.4025 17.3595 30.4025 17.6433C30.4025 17.7852 30.4025 17.927 30.4025 18.0689C30.4025 18.4946 30.1327 18.6365 29.7281 18.7784C29.3235 18.9203 29.0537 18.9203 28.6491 18.9203C27.9748 18.9203 27.3004 18.9203 26.626 18.9203C26.2214 18.9203 25.6819 18.9203 25.2773 18.9203C24.1983 19.0621 23.2542 18.4946 22.5798 17.7851C21.9054 17.2176 21.3659 16.5082 20.8264 15.7987C20.5567 15.5149 20.287 15.2312 19.8823 14.9474C19.4777 14.6636 19.208 14.6636 18.8033 15.0893C18.3987 15.5149 18.2638 16.2244 18.129 16.7919C18.129 17.0757 18.129 17.5014 17.9941 17.7851C17.9941 18.2108 17.7244 18.6365 17.1849 18.6365C17.05 18.6365 16.9151 18.7784 16.6454 18.7784C15.5664 18.7784 14.4874 18.9202 13.4084 18.6365C12.1945 18.3527 10.9807 17.7851 9.90167 17.0757C8.55293 16.2244 7.47394 15.0893 6.52982 13.6704C4.91134 11.4002 3.5626 8.98809 2.34874 6.57599C1.80924 5.58278 1.53952 4.30789 1.00002 3.17279C1 2.80391 1 3.17068 1 3.02879Z" stroke="black"></path><path d="M1 3.02879C1 2.88691 1 2.74502 1 2.60313C1.13487 2.31936 1.26974 2.17747 1.53949 2.17747C1.80924 2.17747 1.94411 2.03558 2.21386 2.03558C3.42772 2.03558 4.77646 2.03558 5.99033 2.03558C6.66469 2.03558 7.06932 2.31936 7.33906 2.88691C7.60881 3.73824 8.01344 4.58957 8.41806 5.29901C8.95755 6.29222 9.36217 7.42733 10.0365 8.42054C10.3063 8.84621 10.576 9.12998 10.8458 9.41375L10.9807 9.55565C11.5202 9.98131 11.9248 10.1232 12.1945 9.12998C12.3294 8.70432 12.3294 8.27865 12.4643 7.85299C12.5991 6.576 12.5991 5.29901 12.3294 4.1639C12.1945 3.31257 11.7899 2.88691 10.9807 2.74502C10.576 2.60313 10.576 2.46124 10.8458 2.17747C11.1155 1.7518 11.5202 1.60992 12.0596 1.46803C12.3294 1.46803 12.4643 1.32614 12.734 1.32614C14.0828 1.18425 15.4315 1.18425 16.6454 1.32614C16.7802 1.32614 16.9151 1.32614 17.05 1.46803C17.7244 1.60992 18.129 1.89369 18.2638 2.88691C18.2638 3.73824 18.2638 4.73145 18.2638 5.58278C18.2638 6.71789 18.129 7.85299 18.2638 8.84621C18.2638 9.12998 18.3987 9.27187 18.5336 9.41375C18.8033 9.69753 19.0731 9.83942 19.3428 9.55565C19.8823 9.12998 20.287 8.56243 20.6916 7.99487C21.6357 6.43411 22.5798 4.87334 23.2542 3.17069C23.389 2.88691 23.389 2.74502 23.5239 2.46125C23.6588 2.17747 23.9285 2.03558 24.1983 2.03558C25.8168 2.03558 27.4353 1.89369 29.0537 2.03558C29.3235 2.03558 29.4584 2.03558 29.7281 2.17747C29.9979 2.31936 30.2676 2.46125 30.2676 2.74502C30.2676 2.88691 30.2676 3.0288 30.2676 3.17069C30.1327 4.1639 29.5932 4.87334 29.1886 5.72467C28.3794 7.00166 27.4353 8.27865 26.626 9.41375C26.3563 9.69753 26.0865 10.1232 25.9517 10.407C25.547 11.1164 25.547 11.5421 26.0865 12.1096C26.3563 12.5353 26.7609 12.8191 27.0306 13.1028C27.9748 13.9542 28.784 14.8055 29.5932 15.9406C29.863 16.2244 29.9979 16.65 30.2676 16.9338C30.4025 17.0757 30.4025 17.3595 30.4025 17.6433C30.4025 17.7852 30.4025 17.927 30.4025 18.0689C30.4025 18.4946 30.1327 18.6365 29.7281 18.7784C29.3235 18.9203 29.0537 18.9203 28.6491 18.9203C27.9748 18.9203 27.3004 18.9203 26.626 18.9203C26.2214 18.9203 25.6819 18.9203 25.2773 18.9203C24.1983 19.0621 23.2542 18.4946 22.5798 17.7851C21.9054 17.2176 21.3659 16.5082 20.8264 15.7987C20.5567 15.5149 20.287 15.2312 19.8823 14.9474C19.4777 14.6636 19.208 14.6636 18.8033 15.0893C18.3987 15.5149 18.2638 16.2244 18.129 16.7919C18.129 17.0757 18.129 17.5014 17.9941 17.7851C17.9941 18.2108 17.7244 18.6365 17.1849 18.6365C17.05 18.6365 16.9151 18.7784 16.6454 18.7784C15.5664 18.7784 14.4874 18.9202 13.4084 18.6365C12.1945 18.3527 10.9807 17.7851 9.90167 17.0757C8.55293 16.2244 7.47394 15.0893 6.52982 13.6704C4.91134 11.4002 3.5626 8.98809 2.34874 6.57599C1.80924 5.58278 1.53952 4.30789 1.00002 3.17279C1 2.80391 1 3.17068 1 3.02879Z" stroke="url(#paint0_linear)"></path><defs><linearGradient id="paint0_linear" x1="-1.24456" y1="10.5029" x2="30.4026" y2="10.5029" gradientUnits="userSpaceOnUse"><stop stop-color="#F2386E"></stop><stop offset="1" stop-color="#492996"></stop></linearGradient></defs></svg>